<svg width="321" height="215" viewBox="0 0 321 215" fill="none" xmlns="http://www.w3.org/2000/svg">
<g clip-path="url(#clip0)">
<path fill-rule="evenodd" clip-rule="evenodd" d="M187.68 113.328V17.7612H320.856V88.8392C320.856 92.498 318.087 95.4624 314.668 95.4624H206.642L187.68 113.328Z" fill="#D7E8F7"/>
<mask id="mask0" mask-type="alpha" maskUnits="userSpaceOnUse" x="187" y="0" width="134" height="18">
<path d="M187.68 0.310867H320.856V17.762H187.68V0.310867Z" fill="white"/>
</mask>
<g mask="url(#mask0)">
<path fill-rule="evenodd" clip-rule="evenodd" d="M315.112 0.309814H193.425C190.252 0.309814 187.68 3.06199 187.68 6.45813V17.7618H320.856V6.45813C320.856 3.06199 318.285 0.309814 315.112 0.309814Z" fill="#214A81"/>
</g>
<path fill-rule="evenodd" clip-rule="evenodd" d="M220.555 9.44359C220.555 11.6058 222.194 13.3596 224.214 13.3596C226.234 13.3596 227.871 11.6058 227.871 9.44359C227.871 7.28142 226.234 5.52939 224.214 5.52939C222.194 5.52939 220.555 7.28142 220.555 9.44359Z" fill="#C1DDF7"/>
<path fill-rule="evenodd" clip-rule="evenodd" d="M208.889 9.44359C208.889 11.6058 210.528 13.3596 212.548 13.3596C214.568 13.3596 216.205 11.6058 216.205 9.44359C216.205 7.28142 214.568 5.52939 212.548 5.52939C210.528 5.52939 208.889 7.28142 208.889 9.44359Z" fill="#C1DDF7"/>
<path fill-rule="evenodd" clip-rule="evenodd" d="M197.224 9.44359C197.224 11.6058 198.862 13.3596 200.882 13.3596C202.902 13.3596 204.541 11.6058 204.541 9.44359C204.541 7.28142 202.902 5.52939 200.882 5.52939C198.862 5.52939 197.224 7.28142 197.224 9.44359Z" fill="#C1DDF7"/>
<path fill-rule="evenodd" clip-rule="evenodd" d="M182.283 193.096C183.925 193.096 185.589 192.626 187.09 191.642C191.446 188.796 192.823 182.709 190.162 178.047L162.516 129.585C159.852 124.919 154.165 123.453 149.814 126.297C145.456 129.143 144.081 135.232 146.74 139.896L174.386 188.354C176.129 191.41 179.169 193.096 182.283 193.096Z" fill="#F4C669"/>
<path fill-rule="evenodd" clip-rule="evenodd" d="M144.586 109.731L142.68 135.916L125.596 133.953L132.746 96.8457L144.586 109.731Z" fill="#FFBDA1"/>
<path fill-rule="evenodd" clip-rule="evenodd" d="M123.808 92.1719C124.682 103.492 133.964 111.91 144.54 110.975C155.116 110.039 162.983 100.105 162.107 88.7829C161.234 77.463 151.951 69.0446 141.374 69.98C130.797 70.9172 122.932 80.852 123.808 92.1719Z" fill="#FFBDA1"/>
<path fill-rule="evenodd" clip-rule="evenodd" d="M134.454 88.087L132.715 96.0191C132.715 96.0191 129.35 116.806 129.152 114.254C128.955 111.699 107.981 75.1422 136.727 66.3407C163.603 58.1129 161.422 78.7344 161.422 78.7344C161.422 78.7344 162.366 94.4368 134.454 88.087Z" fill="#072042"/>
<path fill-rule="evenodd" clip-rule="evenodd" d="M137.46 93.5096C137.241 96.4489 134.838 98.6416 132.093 98.4096C129.347 98.1757 127.299 95.6035 127.517 92.6642C127.734 89.725 130.137 87.5322 132.882 87.7661C135.628 87.9999 137.678 90.5704 137.46 93.5096Z" fill="#FFBDA1"/>
<path fill-rule="evenodd" clip-rule="evenodd" d="M149.585 122.296H117.339C107.584 122.296 103.2 132.378 103.532 138.767L110.941 203.864C111.262 206.91 113.68 209.201 116.542 209.182L155.948 208.879C158.872 208.858 161.289 206.428 161.492 203.303L165.556 140.618C166.2 130.711 158.864 122.296 149.585 122.296Z" fill="#FFD474"/>
<path fill-rule="evenodd" clip-rule="evenodd" d="M121.85 122.296L149.768 122.319C149.768 122.319 148.367 133.463 135.732 133.463C123.093 133.463 121.85 122.296 121.85 122.296Z" fill="#FFBDA1"/>
<path fill-rule="evenodd" clip-rule="evenodd" d="M108.671 85.9059C99.4759 81.6877 95.2172 70.2887 99.1599 60.4474C103.103 50.6062 113.749 46.0498 122.944 50.268C132.141 54.488 136.398 65.8852 132.455 75.7265C128.515 85.5677 117.865 90.1259 108.671 85.9059Z" fill="#072042"/>
<path fill-rule="evenodd" clip-rule="evenodd" d="M6.64958 214.999H290.649C292.671 214.999 294.311 213.245 294.311 211.081C294.311 208.917 292.671 207.165 290.649 207.165H6.64958C4.62779 207.165 2.9875 208.917 2.9875 211.081C2.9875 213.245 4.62779 214.999 6.64958 214.999Z" fill="#CADFEF"/>
<path fill-rule="evenodd" clip-rule="evenodd" d="M151.658 192.581C149.413 187.665 143.868 185.627 139.275 188.028C137.766 188.816 136.557 189.991 135.678 191.379L121.881 191.955L117.017 201.751L136.426 203.511C139.117 206.752 143.586 207.831 147.404 205.833C151.997 203.431 153.902 197.497 151.658 192.581Z" fill="#FFBDA1"/>
<path fill-rule="evenodd" clip-rule="evenodd" d="M126.118 207.173H167.809V201.446H126.118V207.173Z" fill="#CFD1D3"/>
<path fill-rule="evenodd" clip-rule="evenodd" d="M161.566 207.173H224.41C228.03 207.173 231.206 204.59 232.178 200.858L244.431 153.736C245.513 149.572 242.587 145.447 238.547 145.447H180.828C178.409 145.447 176.298 147.189 175.683 149.691L161.566 207.173Z" fill="#E2E4E9"/>
<path fill-rule="evenodd" clip-rule="evenodd" d="M198.725 180.128C198.725 183.643 201.388 186.492 204.671 186.492C207.954 186.492 210.616 183.643 210.616 180.128C210.616 176.615 207.954 173.766 204.671 173.766C201.388 173.766 198.725 176.615 198.725 180.128Z" fill="white"/>
<path fill-rule="evenodd" clip-rule="evenodd" d="M126.936 207.173L88.3622 206.967C86.0631 206.938 83.7758 206.145 82.0666 204.499C79.0785 201.624 78.2381 197.158 79.7339 193.384L104.826 131.237C106.732 126.546 111.765 124.311 116.214 126.182C120.867 128.138 126.77 143.426 124.818 148.35L101.853 187.593L126.652 191.285L126.936 207.173Z" fill="#FFD474"/>
<path fill-rule="evenodd" clip-rule="evenodd" d="M138.297 27.6687H101.597C98.9094 27.6687 96.7346 25.3375 96.7346 22.4612V7.25228C96.7346 4.37779 98.9094 2.04654 101.597 2.04654H138.297C140.984 2.04654 143.162 4.37779 143.162 7.25228V22.4612C143.162 25.3375 140.984 27.6687 138.297 27.6687Z" fill="#D7E8F7"/>
<path fill-rule="evenodd" clip-rule="evenodd" d="M105.843 24.2213V33.7172L115.955 24.2213H105.843Z" fill="#D7E8F7"/>
<path fill-rule="evenodd" clip-rule="evenodd" d="M75.8443 160.415V65.134H-0.000823975V136C-0.000823975 139.648 2.76381 142.605 6.17044 142.605H56.9372L75.8443 160.415Z" fill="#D7E8F7"/>
<path fill-rule="evenodd" clip-rule="evenodd" d="M5.72726 47.734H70.1172C73.2784 47.734 75.8447 50.479 75.8447 53.8643V65.1339H-0.000320435V53.8643C-0.000320435 50.479 2.56432 47.734 5.72726 47.734Z" fill="#214A81"/>
<path fill-rule="evenodd" clip-rule="evenodd" d="M19.9076 56.8405C19.9076 58.9954 18.274 60.7439 16.2606 60.7439C14.2472 60.7439 12.6136 58.9954 12.6136 56.8405C12.6136 54.6855 14.2472 52.9371 16.2606 52.9371C18.274 52.9371 19.9076 54.6855 19.9076 56.8405Z" fill="#C1DDF7"/>
<path fill-rule="evenodd" clip-rule="evenodd" d="M31.539 56.8405C31.539 58.9954 29.9054 60.7439 27.8921 60.7439C25.877 60.7439 24.2451 58.9954 24.2451 56.8405C24.2451 54.6855 25.877 52.9371 27.8921 52.9371C29.9054 52.9371 31.539 54.6855 31.539 56.8405Z" fill="#C1DDF7"/>
<path fill-rule="evenodd" clip-rule="evenodd" d="M43.1705 56.8405C43.1705 58.9954 41.5369 60.7439 39.5218 60.7439C37.5084 60.7439 35.8749 58.9954 35.8749 56.8405C35.8749 54.6855 37.5084 52.9371 39.5218 52.9371C41.5369 52.9371 43.1705 54.6855 43.1705 56.8405Z" fill="#C1DDF7"/>
<path fill-rule="evenodd" clip-rule="evenodd" d="M56.2888 99.9213C56.2888 112.612 46.6756 122.899 34.8204 122.899C22.9619 122.899 13.3487 112.612 13.3487 99.9213C13.3487 87.2289 22.9619 76.9416 34.8204 76.9416C46.6756 76.9416 56.2888 87.2289 56.2888 99.9213Z" fill="#F8FCFF"/>
<path fill-rule="evenodd" clip-rule="evenodd" d="M41.0993 179.035H63.1659C63.5558 179.035 63.8735 179.372 63.8735 179.791V197.714C63.8735 202.927 59.9223 207.154 55.0518 207.154H49.2133C44.3429 207.154 40.3917 202.927 40.3917 197.714V179.791C40.3917 179.372 40.7094 179.035 41.0993 179.035Z" fill="white"/>
<path fill-rule="evenodd" clip-rule="evenodd" d="M43.7449 204.064C38.7652 201.055 30.2209 192.174 31.6461 185.923C32.0242 184.252 32.9805 182.995 34.404 182.288C37.7047 180.645 42.429 182.628 42.955 182.86L41.3853 186.367C40.2442 185.873 37.4594 185.061 36.1468 185.716C35.8813 185.849 35.5888 186.078 35.4342 186.767C34.604 190.406 41.2895 198.083 45.7701 200.79L43.7449 204.064Z" fill="white"/>
<path fill-rule="evenodd" clip-rule="evenodd" d="M252.041 55.2068C252.038 55.1906 252.044 55.1744 252.043 55.16C252.038 55.1204 252.031 55.0845 252.029 55.0449C252.029 55.0269 252.022 55.0125 252.022 54.9963V24.8142C236.944 25.433 224.895 38.7046 224.895 54.9945C224.895 71.6802 237.532 85.2055 253.12 85.2055C254.483 85.2055 255.822 85.0957 257.133 84.8961C256.698 82.3777 256.237 79.7011 255.777 77.0209C253.901 66.1147 252.041 55.2068 252.041 55.2068Z" fill="#214A81"/>
<path fill-rule="evenodd" clip-rule="evenodd" d="M254.217 50.7933L266.81 28.5762C263.056 26.3439 258.777 25.002 254.217 24.8149V50.7933Z" fill="#84B4FE"/>
<path fill-rule="evenodd" clip-rule="evenodd" d="M268.688 29.7978L254.218 55.0098C255.415 62.0072 257.672 75.0881 259.293 84.4725C271.567 81.5404 280.821 70.0604 281.318 56.1701V53.8208C280.96 43.7835 276.029 35.0035 268.688 29.7978Z" fill="#C1DDF7"/>
<path fill-rule="evenodd" clip-rule="evenodd" d="M111.819 14.9789C111.819 16.4323 110.718 17.6105 109.36 17.6105C108.002 17.6105 106.899 16.4323 106.899 14.9789C106.899 13.5254 108.002 12.3472 109.36 12.3472C110.718 12.3472 111.819 13.5254 111.819 14.9789Z" fill="white"/>
<path fill-rule="evenodd" clip-rule="evenodd" d="M122.03 14.9789C122.03 16.4323 120.929 17.6105 119.572 17.6105C118.214 17.6105 117.111 16.4323 117.111 14.9789C117.111 13.5254 118.214 12.3472 119.572 12.3472C120.929 12.3472 122.03 13.5254 122.03 14.9789Z" fill="white"/>
<path fill-rule="evenodd" clip-rule="evenodd" d="M132.242 14.9789C132.242 16.4323 131.141 17.6105 129.782 17.6105C128.425 17.6105 127.323 16.4323 127.323 14.9789C127.323 13.5254 128.425 12.3472 129.782 12.3472C131.141 12.3472 132.242 13.5254 132.242 14.9789Z" fill="white"/>
<path d="M34.4215 98.506C36.6228 98.506 38.424 96.5787 38.424 94.2231C38.424 91.8676 36.6228 89.9403 34.4215 89.9403C32.2201 89.9403 30.419 91.8676 30.419 94.2231C30.419 96.5787 32.2201 98.506 34.4215 98.506Z" fill="#84B4FE"/>
<path d="M36.1625 99.9193C35.6022 100.112 35.0218 100.219 34.4215 100.219C33.8211 100.219 33.2407 100.112 32.6804 99.9193C30.9193 99.2983 28.958 99.8123 27.7973 101.333C26.9368 102.468 26.4165 103.924 26.4165 105.487C26.4165 106.365 27.0769 107.072 27.8974 107.072H40.9455C41.766 107.072 42.4264 106.365 42.4264 105.487C42.4264 103.924 41.9061 102.468 41.0456 101.333C39.8648 99.8123 37.9236 99.2983 36.1625 99.9193Z" fill="#84B4FE"/>
</g>
<defs>
<clipPath id="clip0">
<rect width="321" height="215" fill="white"/>
</clipPath>
</defs>
</svg>
